<svg width="92" height="92" viewBox="0 0 92 92" fill="none" xmlns="http://www.w3.org/2000/svg">
<path d="M89.2688 40.9688C89.1251 40.3938 89.1251 39.8188 88.8376 39.2438C87.9751 36.225 85.9626 33.6375 83.3751 32.3438C80.9313 31.1938 78.3438 31.1938 76.3313 31.1938L61.0938 31.3375L63.2501 21.4188C63.6813 19.6938 64.1126 17.3938 63.3938 15.0938C62.2438 10.925 57.7876 8.33752 53.6188 9.34377C51.0313 10.0625 49.1626 11.7875 47.8688 13.0813C47.1501 13.8 46.0001 14.95 44.5626 16.2438C31.0501 29.4688 28.4626 32.3438 27.7438 33.925C27.0251 35.7938 26.8813 37.6625 26.8813 39.675V70.0063C26.8813 72.45 26.8813 76.7625 29.7563 79.6375C32.6313 82.5125 36.8001 82.6563 39.3876 82.6563C39.5313 82.6563 39.5313 82.6563 39.6751 82.6563H67.1313C68.8563 82.6563 71.1563 82.6563 73.3126 81.5063C76.3313 79.925 77.6251 76.7625 78.4876 74.75C88.2626 51.8938 88.8376 48.1563 88.9813 46.8625C89.5563 44.7063 89.5563 42.8375 89.2688 40.9688ZM82.8001 46C82.6563 47.2938 81.2188 52.325 72.7376 72.3063C72.0188 73.8875 71.3001 75.4688 70.4376 75.9C69.7188 76.3313 68.4251 76.3313 67.2751 76.3313H39.8188C37.8063 76.3313 35.5063 76.1875 34.5001 75.325C33.6376 74.3188 33.4938 72.3063 33.4938 70.2938V39.9625C33.4938 38.6688 33.4938 37.6625 33.7813 36.8C35.2188 34.7875 44.8501 25.3 49.1626 21.275C50.6001 19.8375 51.7501 18.6875 52.4688 17.9688C53.3313 17.1063 54.3376 16.1 55.2001 15.8125C55.9188 15.6688 57.0688 16.2438 57.2126 16.9625C57.5001 17.825 57.2126 18.975 56.9251 20.125L53.9063 33.925C53.7626 34.9313 53.9063 35.9375 54.6251 36.6563C55.2001 37.375 56.2063 37.8063 57.2126 37.8063L76.6188 37.6625C78.2001 37.6625 79.6376 37.6625 80.7876 38.2375C81.7938 38.6688 82.5126 39.8188 82.9438 41.1125C83.0876 41.4 83.0876 41.6875 83.0876 41.975C83.0876 43.125 83.0876 44.4188 82.8001 46Z" fill="#111928"/>
<path d="M14.9499 34.7875H10.6374C6.18115 34.7875 2.5874 38.3813 2.5874 42.8375V74.75C2.5874 79.2063 6.18115 82.8 10.6374 82.8H14.9499C19.4062 82.8 22.9999 79.2063 22.9999 74.75V42.8375C22.8562 38.3813 19.2624 34.7875 14.9499 34.7875ZM16.3874 74.75C16.3874 75.6125 15.6687 76.3313 14.8062 76.3313H10.4937C9.63115 76.3313 8.9124 75.6125 8.9124 74.75V42.8375C8.9124 41.975 9.63115 41.2563 10.4937 41.2563H14.8062C15.6687 41.2563 16.3874 41.975 16.3874 42.8375V74.75Z" fill="#111928"/>
</svg>
