<svg width="18" height="18" viewBox="0 0 18 18" fill="none" xmlns="http://www.w3.org/2000/svg">
<g clip-path="url(#clip0_587_429)">
<path d="M9.0001 0.506226C4.30322 0.506226 0.506348 4.3031 0.506348 8.99998C0.506348 13.6969 4.30322 17.5219 9.0001 17.5219C13.697 17.5219 17.522 13.6969 17.522 8.99998C17.522 4.3031 13.697 0.506226 9.0001 0.506226ZM9.0001 16.2562C5.00635 16.2562 1.77197 12.9937 1.77197 8.99998C1.77197 5.00623 5.00635 1.77185 9.0001 1.77185C12.9938 1.77185 16.2563 5.03435 16.2563 9.0281C16.2563 12.9937 12.9938 16.2562 9.0001 16.2562Z" fill="white"/>
<path d="M11.5878 6.3843C11.3347 6.13118 10.9409 6.13118 10.6878 6.3843L9.00029 8.09993L7.28467 6.3843C7.03154 6.13118 6.63779 6.13118 6.38467 6.3843C6.13154 6.63743 6.13154 7.03118 6.38467 7.2843L8.10029 8.99993L6.38467 10.7156C6.13154 10.9687 6.13154 11.3624 6.38467 11.6156C6.49717 11.7281 6.66592 11.8124 6.83467 11.8124C7.00342 11.8124 7.17217 11.7562 7.28467 11.6156L9.00029 9.89993L10.7159 11.6156C10.8284 11.7281 10.9972 11.8124 11.1659 11.8124C11.3347 11.8124 11.5034 11.7562 11.6159 11.6156C11.869 11.3624 11.869 10.9687 11.6159 10.7156L9.90029 8.99993L11.6159 7.2843C11.8409 7.03118 11.8409 6.63743 11.5878 6.3843Z" fill="white"/>
</g>
<defs>
<clipPath id="clip0_587_429">
<rect width="18" height="18" fill="white"/>
</clipPath>
</defs>
</svg>
