<svg width="18" height="18" viewBox="0 0 18 18" fill="none" xmlns="http://www.w3.org/2000/svg">
<g clip-path="url(#clip0_587_644)">
<path d="M9.0001 0.506226C4.30322 0.506226 0.506348 4.3031 0.506348 8.99998C0.506348 13.6969 4.30322 17.5219 9.0001 17.5219C13.697 17.5219 17.522 13.6969 17.522 8.99998C17.522 4.3031 13.697 0.506226 9.0001 0.506226ZM9.0001 16.2562C5.00635 16.2562 1.77197 12.9937 1.77197 8.99998C1.77197 5.00623 5.00635 1.77185 9.0001 1.77185C12.9938 1.77185 16.2563 5.03435 16.2563 9.0281C16.2563 12.9937 12.9938 16.2562 9.0001 16.2562Z" fill="white"/>
<path d="M10.1249 7.65002H7.8749C7.5374 7.65002 7.22803 7.93127 7.22803 8.2969V13.9219C7.22803 14.2594 7.50928 14.5688 7.8749 14.5688H10.1249C10.4624 14.5688 10.7718 14.2875 10.7718 13.9219V8.2969C10.7718 7.93127 10.4624 7.65002 10.1249 7.65002ZM9.50615 13.275H8.52178V8.91565H9.50615V13.275Z" fill="white"/>
<path d="M8.9999 3.45935C8.04365 3.45935 7.22803 4.24685 7.22803 5.23123C7.22803 6.2156 8.01553 7.0031 8.9999 7.0031C9.98428 7.0031 10.7718 6.2156 10.7718 5.23123C10.7718 4.24685 9.95615 3.45935 8.9999 3.45935ZM8.9999 5.70935C8.71865 5.70935 8.49365 5.48435 8.49365 5.2031C8.49365 4.92185 8.71865 4.69685 8.9999 4.69685C9.28115 4.69685 9.50615 4.92185 9.50615 5.2031C9.50615 5.48435 9.28115 5.70935 8.9999 5.70935Z" fill="white"/>
</g>
<defs>
<clipPath id="clip0_587_644">
<rect width="18" height="18" fill="white"/>
</clipPath>
</defs>
</svg>
