<svg width="24" height="18" viewBox="0 0 24 18" fill="none" xmlns="http://www.w3.org/2000/svg">
<path d="M22.6502 4.38745C22.2002 3.93745 21.6002 3.67495 20.9627 3.67495H18.2252V2.21245C18.2252 1.79995 18.0752 0.824951 16.6502 0.824951H7.2752C5.92519 0.824951 5.7752 1.79995 5.7752 2.21245V3.67495H3.0377C1.7252 3.67495 0.637695 4.76245 0.637695 6.07495V14.775C0.637695 16.0875 1.7252 17.1749 3.0377 17.1749H20.9252C22.2377 17.1749 23.3252 16.0875 23.3252 14.775V6.07495C23.3627 5.43745 23.1002 4.83745 22.6502 4.38745ZM21.6377 14.775C21.6377 15.15 21.3377 15.4874 20.9252 15.4874H3.0377C2.6627 15.4874 2.3252 15.1875 2.3252 14.775V6.07495C2.3252 5.69995 2.6252 5.36245 3.0377 5.36245H6.2252C6.9002 5.36245 7.4627 4.79995 7.4627 4.12495V2.51245H16.5002V4.12495C16.5002 4.79995 17.0627 5.36245 17.7377 5.36245H20.9627C21.1502 5.36245 21.3377 5.43745 21.4502 5.58745C21.6002 5.73745 21.6377 5.88745 21.6377 6.07495V14.775Z" fill="#111928"/>
<path d="M11.8502 5.8125C9.9002 5.8125 8.3252 7.3875 8.3252 9.375C8.3252 11.325 9.8627 12.8625 11.8502 12.8625C13.8002 12.8625 15.3752 11.2875 15.3752 9.375C15.3752 7.4625 13.7627 5.8125 11.8502 5.8125ZM11.8502 11.175C10.8002 11.175 10.0127 10.3875 10.0127 9.375C10.0127 8.3625 10.8377 7.5 11.8502 7.5C12.8627 7.5 13.6877 8.3625 13.6877 9.375C13.6877 10.3875 12.8627 11.175 11.8502 11.175Z" fill="#111928"/>
<path d="M5.1752 6.48743H4.3127C3.8627 6.48743 3.4502 6.86243 3.4502 7.34993C3.4502 7.83743 3.8252 8.21243 4.3127 8.21243H5.1752C5.6252 8.21243 6.0377 7.83743 6.0377 7.34993C6.0377 6.86243 5.6627 6.48743 5.1752 6.48743Z" fill="#111928"/>
</svg>
