<svg width="18" height="18" viewBox="0 0 18 18" fill="none" xmlns="http://www.w3.org/2000/svg">
<g clip-path="url(#clip0_587_417)">
<path d="M9.0001 0.506226C4.30322 0.506226 0.506348 4.3031 0.506348 8.99998C0.506348 13.6969 4.30322 17.5219 9.0001 17.5219C13.697 17.5219 17.522 13.6969 17.522 8.99998C17.522 4.3031 13.697 0.506226 9.0001 0.506226ZM9.0001 16.2562C5.00635 16.2562 1.77197 12.9937 1.77197 8.99998C1.77197 5.00623 5.00635 1.77185 9.0001 1.77185C12.9938 1.77185 16.2563 5.03435 16.2563 9.0281C16.2563 12.9937 12.9938 16.2562 9.0001 16.2562Z" fill="white"/>
<path d="M11.4187 6.38438L8.07183 9.64688L6.55308 8.15626C6.29996 7.90313 5.90621 7.93126 5.65308 8.15626C5.39996 8.40938 5.42808 8.80313 5.65308 9.05626L7.45308 10.8C7.62183 10.9688 7.84683 11.0531 8.07183 11.0531C8.29683 11.0531 8.52183 10.9688 8.69058 10.8L12.3187 7.31251C12.5718 7.05938 12.5718 6.66563 12.3187 6.41251C12.0656 6.15938 11.6718 6.15938 11.4187 6.38438Z" fill="white"/>
</g>
<defs>
<clipPath id="clip0_587_417">
<rect width="18" height="18" fill="white"/>
</clipPath>
</defs>
</svg>
